<svg width="1200" height="560" viewBox="0 0 1200 560" fill="none" xmlns="http://www.w3.org/2000/svg" role="img" aria-labelledby="title desc">
  <title id="title">ContextAll</title>
  <desc id="desc">A warm pink, pale yellow, and deep blue illustration of personal context flowing from capture through preservation and retrieval into meaningful work.</desc>
  <rect width="1200" height="560" rx="32" fill="#FFF1C7"/>
  <circle cx="1100" cy="84" r="180" fill="#FFC9C9" fill-opacity="0.7"/>
  <circle cx="104" cy="500" r="150" fill="#FFC9C9" fill-opacity="0.45"/>
  <rect x="64" y="64" width="1072" height="432" rx="28" fill="#FFFFFF" fill-opacity="0.5" stroke="#4A6FA5" stroke-opacity="0.22" stroke-width="2"/>
  <rect x="102" y="102" width="74" height="28" rx="14" fill="#4A6FA5"/>
  <text x="139" y="121" fill="#FFF1C7" text-anchor="middle" font-family="ui-sans-serif, system-ui, sans-serif" font-size="13" font-weight="700" letter-spacing="1.5">OPEN KIT</text>
  <text x="102" y="238" fill="#4A6FA5" font-family="ui-serif, Georgia, serif" font-size="76" font-weight="700">ContextAll</text>
  <text x="106" y="320" fill="#24324A" font-family="ui-sans-serif, system-ui, sans-serif" font-size="22">Preserve your voice. Make it retrievable.</text>
  <text x="106" y="352" fill="#24324A" fill-opacity="0.78" font-family="ui-sans-serif, system-ui, sans-serif" font-size="18">A privacy-first framework and AI skill for personal context.</text>
  <line x1="106" y1="397" x2="538" y2="397" stroke="#4A6FA5" stroke-opacity="0.28" stroke-width="2"/>
  <text x="106" y="436" fill="#4A6FA5" font-family="ui-sans-serif, system-ui, sans-serif" font-size="15" font-weight="700" letter-spacing="1.4">EVIDENCE FIRST · INTERPRET SECOND · PUBLISH LAST</text>

  <g transform="translate(672 122)">
    <rect width="378" height="316" rx="25" fill="#FFC9C9"/>
    <rect x="32" y="32" width="314" height="74" rx="16" fill="#FFF9E8"/>
    <circle cx="64" cy="69" r="14" fill="#4A6FA5"/>
    <rect x="92" y="55" width="130" height="10" rx="5" fill="#4A6FA5" fill-opacity="0.88"/>
    <rect x="92" y="75" width="210" height="8" rx="4" fill="#4A6FA5" fill-opacity="0.28"/>

    <rect x="32" y="126" width="148" height="158" rx="18" fill="#FFFFFF" fill-opacity="0.72"/>
    <text x="52" y="158" fill="#4A6FA5" font-family="ui-sans-serif, system-ui, sans-serif" font-size="13" font-weight="700">SOURCE</text>
    <rect x="52" y="177" width="96" height="8" rx="4" fill="#4A6FA5" fill-opacity="0.42"/>
    <rect x="52" y="195" width="108" height="8" rx="4" fill="#4A6FA5" fill-opacity="0.28"/>
    <rect x="52" y="213" width="82" height="8" rx="4" fill="#4A6FA5" fill-opacity="0.28"/>
    <rect x="52" y="244" width="74" height="22" rx="11" fill="#FFF1C7"/>
    <text x="89" y="260" fill="#4A6FA5" text-anchor="middle" font-family="ui-sans-serif, system-ui, sans-serif" font-size="11" font-weight="700">PRESERVE</text>

    <path d="M192 205H215" stroke="#4A6FA5" stroke-width="3" stroke-linecap="round"/>
    <path d="M208 198L215 205L208 212" stroke="#4A6FA5" stroke-width="3" stroke-linecap="round" stroke-linejoin="round"/>

    <rect x="228" y="126" width="118" height="158" rx="18" fill="#FFF1C7" fill-opacity="0.86"/>
    <text x="248" y="158" fill="#4A6FA5" font-family="ui-sans-serif, system-ui, sans-serif" font-size="13" font-weight="700">CONTEXT</text>
    <circle cx="258" cy="190" r="6" fill="#4A6FA5"/>
    <rect x="274" y="186" width="48" height="8" rx="4" fill="#4A6FA5" fill-opacity="0.45"/>
    <circle cx="258" cy="216" r="6" fill="#4A6FA5"/>
    <rect x="274" y="212" width="36" height="8" rx="4" fill="#4A6FA5" fill-opacity="0.45"/>
    <circle cx="258" cy="242" r="6" fill="#4A6FA5"/>
    <rect x="274" y="238" width="54" height="8" rx="4" fill="#4A6FA5" fill-opacity="0.45"/>
  </g>
</svg>
